<svg xmlns="http://www.w3.org/2000/svg" viewBox="0 0 600 600">
  <defs>
    <linearGradient id="bg" x1="0" y1="0" x2="1" y2="1">
      <stop offset="0%" stop-color="#0a0a0a"/>
      <stop offset="100%" stop-color="#1a1a1a"/>
    </linearGradient>
    <linearGradient id="accent" x1="0" y1="0" x2="1" y2="1">
      <stop offset="0%" stop-color="#ffffff" stop-opacity="0.9"/>
      <stop offset="100%" stop-color="#e5e5e5" stop-opacity="0.9"/>
    </linearGradient>
    <filter id="glow">
      <feGaussianBlur stdDeviation="4" result="blur"/>
      <feFlood flood-color="#ffffff" flood-opacity="0.3"/>
      <feComposite in2="blur" operator="in"/>
      <feMerge>
        <feMergeNode/>
        <feMergeNode in="SourceGraphic"/>
      </feMerge>
    </filter>
  </defs>

  <!-- Background -->
  <rect width="600" height="600" fill="url(#bg)"/>

  <!-- Outer Ring -->
  <circle cx="300" cy="300" r="280" fill="none" stroke="url(#accent)" stroke-width="3" opacity="0.4" filter="url(#glow)"/>

  <!-- U Letter -->
  <path d="M150 150 L150 360 Q150 430 250 430 L290 430" 
        fill="none" stroke="url(#accent)" stroke-width="22" stroke-linecap="round" stroke-linejoin="round" filter="url(#glow)"/>

  <!-- D Letter -->
  <path d="M290 150 L290 430" 
        fill="none" stroke="url(#accent)" stroke-width="22" stroke-linecap="round" filter="url(#glow)"/>
  <path d="M290 150 Q290 150 380 150 Q430 150 430 260 L430 340 Q430 430 380 430 L290 430" 
        fill="none" stroke="url(#accent)" stroke-width="22" stroke-linecap="round" stroke-linejoin="round" filter="url(#glow)"/>

  <!-- Accent Dots -->
  <circle cx="150" cy="150" r="10" fill="#ffffff" filter="url(#glow)"/>
  <circle cx="290" cy="150" r="10" fill="#ffffff" filter="url(#glow)"/>
  <circle cx="290" cy="430" r="10" fill="#ffffff" filter="url(#glow)"/>

  <!-- Code Brackets -->
  <path d="M60 280 L30 300 L60 320" stroke="#ffffff" stroke-width="4" fill="none" opacity="0.6" filter="url(#glow)"/>
  <path d="M540 280 L570 300 L540 320" stroke="#ffffff" stroke-width="4" fill="none" opacity="0.6" filter="url(#glow)"/>

  <!-- Code Lines -->
  <rect x="220" y="470" width="160" height="8" rx="4" fill="#ffffff" opacity="0.4" filter="url(#glow)"/>
  <rect x="270" y="495" width="60" height="8" rx="4" fill="#ffffff" opacity="0.25" filter="url(#glow)"/>

  <!-- Subtle Outer Glow -->
  <circle cx="300" cy="300" r="295" fill="none" stroke="#ffffff" stroke-width="1" opacity="0.08"/>
</svg>